<svg width="51" height="51" viewBox="0 0 51 51" fill="none" xmlns="http://www.w3.org/2000/svg">
<g clip-path="url(#clip0_5_148)">
<path d="M27.8198 29.4199H23.9758L22.5498 12.5249H29.2458L27.8198 29.4199ZM25.8978 31.6829C26.8478 31.6829 27.6338 31.9929 28.2538 32.6129C28.8738 33.2329 29.1838 34.0179 29.1838 34.9689C29.1838 35.9189 28.8738 36.6949 28.2538 37.2939C27.6338 37.9139 26.8488 38.2239 25.8978 38.2239C24.9478 38.2239 24.1618 37.9139 23.5418 37.2939C22.9218 36.6939 22.6118 35.9199 22.6118 34.9689C22.6118 34.0189 22.9218 33.2329 23.5418 32.6129C24.1618 31.9929 24.9468 31.6829 25.8978 31.6829Z" fill="black"/>
<path d="M25.5 48.5C38.2025 48.5 48.5 38.2025 48.5 25.5C48.5 12.7975 38.2025 2.5 25.5 2.5C12.7975 2.5 2.5 12.7975 2.5 25.5C2.5 38.2025 12.7975 48.5 25.5 48.5Z" stroke="black" stroke-width="5"/>
</g>
<defs>
<clipPath id="clip0_5_148">
<rect width="51" height="51" fill="white"/>
</clipPath>
</defs>
</svg>
